<svg width="1800" height="1024" viewBox="0 0 1800 1024" fill="none" xmlns="http://www.w3.org/2000/svg">
<g clip-path="url(#clip0_3_191)">
<rect width="1800" height="1024" fill="white"/>
<path d="M0 0H1800V233.351L0 665V0Z" fill="url(#paint0_linear_3_191)" fill-opacity="0.8"/>
<path d="M0 1024H1800V791L0 360V1024Z" fill="url(#paint1_linear_3_191)" fill-opacity="0.8"/>
<g filter="url(#filter0_d_3_191)">
<path d="M146.173 66.4468C146.173 67.5103 146.033 68.5361 145.754 69.5244C145.485 70.502 145.099 71.4204 144.594 72.2798C144.089 73.1284 143.487 73.9072 142.789 74.6162C142.091 75.3145 141.312 75.916 140.453 76.4209C139.593 76.9258 138.669 77.3179 137.681 77.5972C136.704 77.8657 135.683 78 134.62 78H127.659V54.8936H134.62C135.683 54.8936 136.704 55.0332 137.681 55.3125C138.669 55.5811 139.593 55.9678 140.453 56.4727C141.312 56.9775 142.091 57.5845 142.789 58.2935C143.487 58.9917 144.089 59.7705 144.594 60.6299C145.099 61.4785 145.485 62.397 145.754 63.3853C146.033 64.3628 146.173 65.3833 146.173 66.4468ZM141.548 66.4468C141.548 65.4907 141.366 64.5938 141 63.7559C140.646 62.918 140.152 62.1875 139.518 61.5645C138.895 60.9307 138.159 60.4312 137.311 60.0659C136.473 59.7007 135.576 59.5181 134.62 59.5181H132.315V73.3755H134.62C135.576 73.3755 136.473 73.1982 137.311 72.8438C138.159 72.4785 138.895 71.9844 139.518 71.3613C140.152 70.7275 140.646 69.9917 141 69.1538C141.366 68.3052 141.548 67.4028 141.548 66.4468Z" fill="white"/>
<path d="M236.173 66.4468C236.173 67.5103 236.033 68.5361 235.754 69.5244C235.485 70.502 235.099 71.4204 234.594 72.2798C234.089 73.1284 233.487 73.9072 232.789 74.6162C232.091 75.3145 231.312 75.916 230.453 76.4209C229.593 76.9258 228.669 77.3179 227.681 77.5972C226.704 77.8657 225.683 78 224.62 78H217.659V54.8936H224.62C225.683 54.8936 226.704 55.0332 227.681 55.3125C228.669 55.5811 229.593 55.9678 230.453 56.4727C231.312 56.9775 232.091 57.5845 232.789 58.2935C233.487 58.9917 234.089 59.7705 234.594 60.6299C235.099 61.4785 235.485 62.397 235.754 63.3853C236.033 64.3628 236.173 65.3833 236.173 66.4468ZM231.548 66.4468C231.548 65.4907 231.366 64.5938 231 63.7559C230.646 62.918 230.152 62.1875 229.518 61.5645C228.895 60.9307 228.159 60.4312 227.311 60.0659C226.473 59.7007 225.576 59.5181 224.62 59.5181H222.315V73.3755H224.62C225.576 73.3755 226.473 73.1982 227.311 72.8438C228.159 72.4785 228.895 71.9844 229.518 71.3613C230.152 70.7275 230.646 69.9917 231 69.1538C231.366 68.3052 231.548 67.4028 231.548 66.4468Z" fill="white"/>
<path d="M255.498 78H239.659V54.8936H255.498V59.5181H244.283V64.1426H251.873V68.7671H244.283V73.3755H255.498V78Z" fill="white"/>
<path d="M167.883 68.7671C167.883 70.0454 167.641 71.2485 167.158 72.3765C166.674 73.4937 166.014 74.4712 165.176 75.3091C164.338 76.1362 163.355 76.7915 162.227 77.2749C161.11 77.7583 159.912 78 158.634 78C157.355 78 156.152 77.7583 155.024 77.2749C153.907 76.7915 152.93 76.1362 152.092 75.3091C151.265 74.4712 150.609 73.4937 150.126 72.3765C149.643 71.2485 149.401 70.0454 149.401 68.7671V54.8936H154.009V68.7671C154.009 69.4009 154.127 69.9971 154.364 70.5557C154.611 71.1143 154.944 71.603 155.363 72.022C155.782 72.4409 156.271 72.7739 156.829 73.021C157.398 73.2573 158 73.3755 158.634 73.3755C159.268 73.3755 159.864 73.2573 160.422 73.021C160.992 72.7739 161.486 72.4409 161.905 72.022C162.324 71.603 162.651 71.1143 162.888 70.5557C163.135 69.9971 163.258 69.4009 163.258 68.7671V54.8936H167.883V68.7671Z" fill="white"/>
<path d="M194.148 64.2329C194.148 62.9546 194.39 61.7515 194.874 60.6235C195.357 59.5063 196.018 58.5288 196.855 57.6909C197.693 56.8638 198.676 56.2085 199.804 55.7251C200.921 55.2417 202.119 55 203.397 55C204.676 55 205.879 55.2417 207.007 55.7251C208.124 56.2085 209.102 56.8638 209.939 57.6909C210.767 58.5288 211.422 59.5063 211.905 60.6235C212.389 61.7515 212.63 62.9546 212.63 64.2329L212.63 78.1064L208.022 78.1064L208.022 64.2329C208.022 63.5991 207.904 63.0029 207.667 62.4443C207.42 61.8857 207.087 61.397 206.668 60.978C206.25 60.5591 205.761 60.2261 205.202 59.979C204.633 59.7427 204.031 59.6245 203.397 59.6245C202.764 59.6245 202.167 59.7427 201.609 59.979C201.04 60.2261 200.545 60.5591 200.126 60.978C199.708 61.397 199.38 61.8857 199.144 62.4443C198.896 63.0029 198.773 63.5991 198.773 64.2329L198.773 78.1064L194.148 78.1064L194.148 64.2329Z" fill="white"/>
<path d="M259.148 64.2329C259.148 62.9546 259.39 61.7515 259.874 60.6235C260.357 59.5063 261.018 58.5288 261.855 57.6909C262.693 56.8638 263.676 56.2085 264.804 55.7251C265.921 55.2417 267.119 55 268.397 55C269.676 55 270.879 55.2417 272.007 55.7251C273.124 56.2085 274.102 56.8638 274.939 57.6909C275.767 58.5288 276.422 59.5063 276.905 60.6235C277.389 61.7515 277.63 62.9546 277.63 64.2329L277.63 78.1064L273.022 78.1064L273.022 64.2329C273.022 63.5991 272.904 63.0029 272.667 62.4443C272.42 61.8857 272.087 61.397 271.668 60.978C271.25 60.5591 270.761 60.2261 270.202 59.979C269.633 59.7427 269.031 59.6245 268.397 59.6245C267.764 59.6245 267.167 59.7427 266.609 59.979C266.04 60.2261 265.545 60.5591 265.126 60.978C264.708 61.397 264.38 61.8857 264.144 62.4443C263.896 63.0029 263.773 63.5991 263.773 64.2329L263.773 78.1064L259.148 78.1064L259.148 64.2329Z" fill="white"/>
<path d="M273.148 64.2329C273.148 62.9546 273.39 61.7515 273.874 60.6235C274.357 59.5063 275.018 58.5288 275.855 57.6909C276.693 56.8638 277.676 56.2085 278.804 55.7251C279.921 55.2417 281.119 55 282.397 55C283.676 55 284.879 55.2417 286.007 55.7251C287.124 56.2085 288.102 56.8638 288.939 57.6909C289.767 58.5288 290.422 59.5063 290.905 60.6235C291.389 61.7515 291.63 62.9546 291.63 64.2329L291.63 78.1064L287.022 78.1064L287.022 64.2329C287.022 63.5991 286.904 63.0029 286.667 62.4443C286.42 61.8857 286.087 61.397 285.668 60.978C285.25 60.5591 284.761 60.2261 284.202 59.979C283.633 59.7427 283.031 59.6245 282.397 59.6245C281.764 59.6245 281.167 59.7427 280.609 59.979C280.04 60.2261 279.545 60.5591 279.126 60.978C278.708 61.397 278.38 61.8857 278.144 62.4443C277.896 63.0029 277.773 63.5991 277.773 64.2329L277.773 78.1064L273.148 78.1064L273.148 64.2329Z" fill="white"/>
<path d="M295.748 55L300.373 55L300.373 78.1064L295.748 78.1064L295.748 55Z" fill="white"/>
<path d="M190.108 75.6313C189.034 76.5552 187.831 77.2642 186.499 77.7583C185.167 78.2524 183.787 78.4995 182.358 78.4995C181.262 78.4995 180.204 78.3545 179.184 78.0645C178.174 77.7852 177.223 77.3877 176.332 76.8721C175.451 76.3457 174.645 75.7173 173.915 74.9868C173.184 74.2563 172.556 73.4507 172.029 72.5698C171.514 71.6782 171.111 70.7275 170.821 69.7178C170.542 68.6973 170.402 67.6392 170.402 66.5435C170.402 65.4478 170.542 64.3896 170.821 63.3691C171.111 62.3486 171.514 61.3979 172.029 60.5171C172.556 59.6255 173.184 58.8145 173.915 58.084C174.645 57.3535 175.451 56.7305 176.332 56.2148C177.223 55.6885 178.174 55.2856 179.184 55.0063C180.204 54.7163 181.262 54.5713 182.358 54.5713C183.787 54.5713 185.167 54.8184 186.499 55.3125C187.831 55.7959 189.034 56.5049 190.108 57.4395L187.659 61.4678C186.982 60.7373 186.182 60.1787 185.258 59.792C184.334 59.3945 183.368 59.1958 182.358 59.1958C181.337 59.1958 180.381 59.3892 179.49 59.7759C178.598 60.1626 177.819 60.689 177.153 61.355C176.487 62.0103 175.961 62.7891 175.574 63.6914C175.188 64.583 174.994 65.5337 174.994 66.5435C174.994 67.5532 175.188 68.5039 175.574 69.3955C175.961 70.2764 176.487 71.0498 177.153 71.7158C177.819 72.3818 178.598 72.9082 179.49 73.2949C180.381 73.6816 181.337 73.875 182.358 73.875C183.368 73.875 184.334 73.6816 185.258 73.2949C186.182 72.8975 186.982 72.3335 187.659 71.603L190.108 75.6313Z" fill="white"/>
<path d="M84.929 76.7867L87.9268 75.9834L88.7276 78.9719L84.929 76.7867Z" fill="#82D5BC"/>
<path d="M84.929 76.7867L87.9268 75.9834L88.7276 78.9719L84.929 76.7867Z" fill="#82D5BC"/>
<rect x="83.7954" y="60.5789" width="28.5621" height="19.0414" transform="rotate(-15 83.7954 60.5789)" fill="#82D5BC"/>
<rect x="80" y="58.3925" width="28.5621" height="19.0414" transform="rotate(-15 80 58.3925)" fill="#D2F7FC"/>
<rect x="102.266" y="55.4847" width="1.14248" height="13.329" rx="0.571242" transform="rotate(-15 102.266 55.4847)" fill="#D9D9D9"/>
<rect x="96.8091" y="57.0807" width="1.14248" height="13.329" rx="0.571242" transform="rotate(-15 96.8091 57.0807)" fill="#D9D9D9"/>
<rect x="91.2302" y="58.4418" width="1.14248" height="13.329" rx="0.571242" transform="rotate(-15 91.2302 58.4418)" fill="#D9D9D9"/>
<rect x="85.7124" y="59.9202" width="1.14248" height="13.329" rx="0.571242" transform="rotate(-15 85.7124 59.9202)" fill="#D9D9D9"/>
<rect x="83.7954" y="60.5789" width="28.5621" height="19.0414" transform="rotate(-15 83.7954 60.5789)" fill="#82D5BC"/>
<rect x="80" y="58.3925" width="28.5621" height="19.0414" transform="rotate(-15 80 58.3925)" fill="#D2F7FC"/>
<rect x="102.266" y="55.4847" width="1.14248" height="13.329" rx="0.571242" transform="rotate(-15 102.266 55.4847)" fill="#D9D9D9"/>
<rect x="96.8091" y="57.0807" width="1.14248" height="13.329" rx="0.571242" transform="rotate(-15 96.8091 57.0807)" fill="#D9D9D9"/>
<rect x="91.2302" y="58.4418" width="1.14248" height="13.329" rx="0.571242" transform="rotate(-15 91.2302 58.4418)" fill="#D9D9D9"/>
<rect x="85.7124" y="59.9202" width="1.14248" height="13.329" rx="0.571242" transform="rotate(-15 85.7124 59.9202)" fill="#D9D9D9"/>
</g>
</g>
<defs>
<filter id="filter0_d_3_191" x="75" y="48" width="230.373" height="37.9719" filterUnits="userSpaceOnUse" color-interpolation-filters="sRGB">
<feFlood flood-opacity="0" result="BackgroundImageFix"/>
<feColorMatrix in="SourceAlpha" type="matrix" values="0 0 0 0 0 0 0 0 0 0 0 0 0 0 0 0 0 0 127 0" result="hardAlpha"/>
<feOffset dy="2"/>
<feGaussianBlur stdDeviation="2.5"/>
<feComposite in2="hardAlpha" operator="out"/>
<feColorMatrix type="matrix" values="0 0 0 0 0 0 0 0 0 0 0 0 0 0 0 0 0 0 0.15 0"/>
<feBlend mode="normal" in2="BackgroundImageFix" result="effect1_dropShadow_3_191"/>
<feBlend mode="normal" in="SourceGraphic" in2="effect1_dropShadow_3_191" result="shape"/>
</filter>
<linearGradient id="paint0_linear_3_191" x1="0" y1="280.343" x2="1800" y2="280.343" gradientUnits="userSpaceOnUse">
<stop stop-color="#9489F5"/>
<stop offset="1" stop-color="#29DBE6"/>
</linearGradient>
<linearGradient id="paint1_linear_3_191" x1="0" y1="744.078" x2="1800" y2="744.078" gradientUnits="userSpaceOnUse">
<stop stop-color="#9489F5"/>
<stop offset="1" stop-color="#29DBE6"/>
</linearGradient>
<clipPath id="clip0_3_191">
<rect width="1800" height="1024" fill="white"/>
</clipPath>
</defs>
</svg>
