<svg width="231" height="43" viewBox="0 0 231 43" fill="none" xmlns="http://www.w3.org/2000/svg">
<g filter="url(#filter0_d_248_1991)">
<path d="M71.1729 21.4468C71.1729 22.5103 71.0332 23.5361 70.7539 24.5244C70.4854 25.502 70.0986 26.4204 69.5938 27.2798C69.0889 28.1284 68.4873 28.9072 67.7891 29.6162C67.0908 30.3145 66.312 30.916 65.4526 31.4209C64.5933 31.9258 63.6694 32.3179 62.6812 32.5972C61.7036 32.8657 60.6831 33 59.6196 33H52.6587V9.89355H59.6196C60.6831 9.89355 61.7036 10.0332 62.6812 10.3125C63.6694 10.5811 64.5933 10.9678 65.4526 11.4727C66.312 11.9775 67.0908 12.5845 67.7891 13.2935C68.4873 13.9917 69.0889 14.7705 69.5938 15.6299C70.0986 16.4785 70.4854 17.397 70.7539 18.3853C71.0332 19.3628 71.1729 20.3833 71.1729 21.4468ZM66.5483 21.4468C66.5483 20.4907 66.3657 19.5938 66.0005 18.7559C65.646 17.918 65.1519 17.1875 64.5181 16.5645C63.895 15.9307 63.1592 15.4312 62.3105 15.0659C61.4727 14.7007 60.5757 14.5181 59.6196 14.5181H57.3154V28.3755H59.6196C60.5757 28.3755 61.4727 28.1982 62.3105 27.8438C63.1592 27.4785 63.895 26.9844 64.5181 26.3613C65.1519 25.7275 65.646 24.9917 66.0005 24.1538C66.3657 23.3052 66.5483 22.4028 66.5483 21.4468Z" fill="#00D282"/>
<path d="M161.173 21.4468C161.173 22.5103 161.033 23.5361 160.754 24.5244C160.485 25.502 160.099 26.4204 159.594 27.2798C159.089 28.1284 158.487 28.9072 157.789 29.6162C157.091 30.3145 156.312 30.916 155.453 31.4209C154.593 31.9258 153.669 32.3179 152.681 32.5972C151.704 32.8657 150.683 33 149.62 33H142.659V9.89355H149.62C150.683 9.89355 151.704 10.0332 152.681 10.3125C153.669 10.5811 154.593 10.9678 155.453 11.4727C156.312 11.9775 157.091 12.5845 157.789 13.2935C158.487 13.9917 159.089 14.7705 159.594 15.6299C160.099 16.4785 160.485 17.397 160.754 18.3853C161.033 19.3628 161.173 20.3833 161.173 21.4468ZM156.548 21.4468C156.548 20.4907 156.366 19.5938 156 18.7559C155.646 17.918 155.152 17.1875 154.518 16.5645C153.895 15.9307 153.159 15.4312 152.311 15.0659C151.473 14.7007 150.576 14.5181 149.62 14.5181H147.315V28.3755H149.62C150.576 28.3755 151.473 28.1982 152.311 27.8438C153.159 27.4785 153.895 26.9844 154.518 26.3613C155.152 25.7275 155.646 24.9917 156 24.1538C156.366 23.3052 156.548 22.4028 156.548 21.4468Z" fill="#00D282"/>
<path d="M180.498 33H164.659V9.89355H180.498V14.5181H169.283V19.1426H176.873V23.7671H169.283V28.3755H180.498V33Z" fill="#00D282"/>
<path d="M92.8828 23.7671C92.8828 25.0454 92.6411 26.2485 92.1577 27.3765C91.6743 28.4937 91.0137 29.4712 90.1758 30.3091C89.3379 31.1362 88.355 31.7915 87.2271 32.2749C86.1099 32.7583 84.9121 33 83.6338 33C82.3555 33 81.1523 32.7583 80.0244 32.2749C78.9072 31.7915 77.9297 31.1362 77.0918 30.3091C76.2646 29.4712 75.6094 28.4937 75.126 27.3765C74.6426 26.2485 74.4009 25.0454 74.4009 23.7671V9.89355H79.0093V23.7671C79.0093 24.4009 79.1274 24.9971 79.3638 25.5557C79.6108 26.1143 79.9438 26.603 80.3628 27.022C80.7817 27.4409 81.2705 27.7739 81.8291 28.021C82.3984 28.2573 83 28.3755 83.6338 28.3755C84.2676 28.3755 84.8638 28.2573 85.4224 28.021C85.9917 27.7739 86.4858 27.4409 86.9048 27.022C87.3237 26.603 87.6514 26.1143 87.8877 25.5557C88.1348 24.9971 88.2583 24.4009 88.2583 23.7671V9.89355H92.8828V23.7671Z" fill="#00D282"/>
<path d="M119.148 19.2329C119.148 17.9546 119.39 16.7515 119.874 15.6235C120.357 14.5063 121.018 13.5288 121.855 12.6909C122.693 11.8638 123.676 11.2085 124.804 10.7251C125.921 10.2417 127.119 10 128.397 10C129.676 10 130.879 10.2417 132.007 10.7251C133.124 11.2085 134.102 11.8638 134.939 12.6909C135.767 13.5288 136.422 14.5063 136.905 15.6235C137.389 16.7515 137.63 17.9546 137.63 19.2329L137.63 33.1064L133.022 33.1064L133.022 19.2329C133.022 18.5991 132.904 18.0029 132.667 17.4443C132.42 16.8857 132.087 16.397 131.668 15.978C131.25 15.5591 130.761 15.2261 130.202 14.979C129.633 14.7427 129.031 14.6245 128.397 14.6245C127.764 14.6245 127.167 14.7427 126.609 14.979C126.04 15.2261 125.545 15.5591 125.126 15.978C124.708 16.397 124.38 16.8857 124.144 17.4443C123.896 18.0029 123.773 18.5991 123.773 19.2329L123.773 33.1064L119.148 33.1064L119.148 19.2329Z" fill="#00D282"/>
<path d="M184.148 19.2329C184.148 17.9546 184.39 16.7515 184.874 15.6235C185.357 14.5063 186.018 13.5288 186.855 12.6909C187.693 11.8638 188.676 11.2085 189.804 10.7251C190.921 10.2417 192.119 10 193.397 10C194.676 10 195.879 10.2417 197.007 10.7251C198.124 11.2085 199.102 11.8638 199.939 12.6909C200.767 13.5288 201.422 14.5063 201.905 15.6235C202.389 16.7515 202.63 17.9546 202.63 19.2329L202.63 33.1064L198.022 33.1064L198.022 19.2329C198.022 18.5991 197.904 18.0029 197.667 17.4443C197.42 16.8857 197.087 16.397 196.668 15.978C196.25 15.5591 195.761 15.2261 195.202 14.979C194.633 14.7427 194.031 14.6245 193.397 14.6245C192.764 14.6245 192.167 14.7427 191.609 14.979C191.04 15.2261 190.545 15.5591 190.126 15.978C189.708 16.397 189.38 16.8857 189.144 17.4443C188.896 18.0029 188.773 18.5991 188.773 19.2329L188.773 33.1064L184.148 33.1064L184.148 19.2329Z" fill="#00D282"/>
<path d="M198.148 19.2329C198.148 17.9546 198.39 16.7515 198.874 15.6235C199.357 14.5063 200.018 13.5288 200.855 12.6909C201.693 11.8638 202.676 11.2085 203.804 10.7251C204.921 10.2417 206.119 10 207.397 10C208.676 10 209.879 10.2417 211.007 10.7251C212.124 11.2085 213.102 11.8638 213.939 12.6909C214.767 13.5288 215.422 14.5063 215.905 15.6235C216.389 16.7515 216.63 17.9546 216.63 19.2329L216.63 33.1064L212.022 33.1064L212.022 19.2329C212.022 18.5991 211.904 18.0029 211.667 17.4443C211.42 16.8857 211.087 16.397 210.668 15.978C210.25 15.5591 209.761 15.2261 209.202 14.979C208.633 14.7427 208.031 14.6245 207.397 14.6245C206.764 14.6245 206.167 14.7427 205.609 14.979C205.04 15.2261 204.545 15.5591 204.126 15.978C203.708 16.397 203.38 16.8857 203.144 17.4443C202.896 18.0029 202.773 18.5991 202.773 19.2329L202.773 33.1064L198.148 33.1064L198.148 19.2329Z" fill="#00D282"/>
<path d="M220.748 10L225.373 10L225.373 33.1064L220.748 33.1064L220.748 10Z" fill="#00D282"/>
<path d="M115.108 30.6313C114.034 31.5552 112.831 32.2642 111.499 32.7583C110.167 33.2524 108.787 33.4995 107.358 33.4995C106.262 33.4995 105.204 33.3545 104.184 33.0645C103.174 32.7852 102.223 32.3877 101.332 31.8721C100.451 31.3457 99.645 30.7173 98.9146 29.9868C98.1841 29.2563 97.5557 28.4507 97.0293 27.5698C96.5137 26.6782 96.1108 25.7275 95.8208 24.7178C95.5415 23.6973 95.4019 22.6392 95.4019 21.5435C95.4019 20.4478 95.5415 19.3896 95.8208 18.3691C96.1108 17.3486 96.5137 16.3979 97.0293 15.5171C97.5557 14.6255 98.1841 13.8145 98.9146 13.084C99.645 12.3535 100.451 11.7305 101.332 11.2148C102.223 10.6885 103.174 10.2856 104.184 10.0063C105.204 9.71631 106.262 9.57129 107.358 9.57129C108.787 9.57129 110.167 9.81836 111.499 10.3125C112.831 10.7959 114.034 11.5049 115.108 12.4395L112.659 16.4678C111.982 15.7373 111.182 15.1787 110.258 14.792C109.334 14.3945 108.368 14.1958 107.358 14.1958C106.337 14.1958 105.381 14.3892 104.49 14.7759C103.598 15.1626 102.819 15.689 102.153 16.355C101.487 17.0103 100.961 17.7891 100.574 18.6914C100.188 19.583 99.9941 20.5337 99.9941 21.5435C99.9941 22.5532 100.188 23.5039 100.574 24.3955C100.961 25.2764 101.487 26.0498 102.153 26.7158C102.819 27.3818 103.598 27.9082 104.49 28.2949C105.381 28.6816 106.337 28.875 107.358 28.875C108.368 28.875 109.334 28.6816 110.258 28.2949C111.182 27.8975 111.982 27.3335 112.659 26.603L115.108 30.6313Z" fill="#00D282"/>
<path d="M9.92856 31.7867L12.9263 30.9834L13.7271 33.9719L9.92856 31.7867Z" fill="#82D5BC"/>
<path d="M9.92856 31.7867L12.9263 30.9834L13.7271 33.9719L9.92856 31.7867Z" fill="#82D5BC"/>
<rect x="8.79492" y="15.5789" width="28.5621" height="19.0414" transform="rotate(-15 8.79492 15.5789)" fill="#82D5BC"/>
<rect x="5" y="13.3925" width="28.5621" height="19.0414" transform="rotate(-15 5 13.3925)" fill="#D2F7FC"/>
<rect x="27.2656" y="10.4847" width="1.14248" height="13.329" rx="0.571242" transform="rotate(-15 27.2656 10.4847)" fill="#D9D9D9"/>
<rect x="21.8096" y="12.0807" width="1.14248" height="13.329" rx="0.571242" transform="rotate(-15 21.8096 12.0807)" fill="#D9D9D9"/>
<rect x="16.2305" y="13.4418" width="1.14248" height="13.329" rx="0.571242" transform="rotate(-15 16.2305 13.4418)" fill="#D9D9D9"/>
<rect x="10.7119" y="14.9202" width="1.14248" height="13.329" rx="0.571242" transform="rotate(-15 10.7119 14.9202)" fill="#D9D9D9"/>
<rect x="8.79492" y="15.5789" width="28.5621" height="19.0414" transform="rotate(-15 8.79492 15.5789)" fill="#82D5BC"/>
<rect x="5" y="13.3925" width="28.5621" height="19.0414" transform="rotate(-15 5 13.3925)" fill="#D2F7FC"/>
<rect x="27.2656" y="10.4847" width="1.14248" height="13.329" rx="0.571242" transform="rotate(-15 27.2656 10.4847)" fill="#D9D9D9"/>
<rect x="21.8096" y="12.0807" width="1.14248" height="13.329" rx="0.571242" transform="rotate(-15 21.8096 12.0807)" fill="#D9D9D9"/>
<rect x="16.2305" y="13.4418" width="1.14248" height="13.329" rx="0.571242" transform="rotate(-15 16.2305 13.4418)" fill="#D9D9D9"/>
<rect x="10.7119" y="14.9202" width="1.14248" height="13.329" rx="0.571242" transform="rotate(-15 10.7119 14.9202)" fill="#D9D9D9"/>
</g>
<defs>
<filter id="filter0_d_248_1991" x="0" y="3" width="230.372" height="37.9719" filterUnits="userSpaceOnUse" color-interpolation-filters="sRGB">
<feFlood flood-opacity="0" result="BackgroundImageFix"/>
<feColorMatrix in="SourceAlpha" type="matrix" values="0 0 0 0 0 0 0 0 0 0 0 0 0 0 0 0 0 0 127 0" result="hardAlpha"/>
<feOffset dy="2"/>
<feGaussianBlur stdDeviation="2.5"/>
<feComposite in2="hardAlpha" operator="out"/>
<feColorMatrix type="matrix" values="0 0 0 0 0 0 0 0 0 0 0 0 0 0 0 0 0 0 0.15 0"/>
<feBlend mode="normal" in2="BackgroundImageFix" result="effect1_dropShadow_248_1991"/>
<feBlend mode="normal" in="SourceGraphic" in2="effect1_dropShadow_248_1991" result="shape"/>
</filter>
</defs>
</svg>
